<?xml version="1.0" encoding="UTF-8" standalone="no"?>
<svg
   width="1026.167"
   height="638.33301"
   version="1.1"
   id="svg1"
   sodipodi:docname="logoOpsCore.svg"
   viewBox="2 0 1026.167 638.333"
   inkscape:version="1.4.2 (f4327f4, 2025-05-13)"
   xmlns:inkscape="http://www.inkscape.org/namespaces/inkscape"
   xmlns:sodipodi="http://sodipodi.sourceforge.net/DTD/sodipodi-0.dtd"
   xmlns="http://www.w3.org/2000/svg"
   xmlns:svg="http://www.w3.org/2000/svg">
  <defs
     id="defs1" />
  <sodipodi:namedview
     id="namedview1"
     pagecolor="#ffffff"
     bordercolor="#000000"
     borderopacity="0.25"
     inkscape:showpageshadow="2"
     inkscape:pageopacity="0.0"
     inkscape:pagecheckerboard="0"
     inkscape:deskcolor="#d1d1d1"
     inkscape:zoom="0.46745735"
     inkscape:cx="626.79515"
     inkscape:cy="779.75027"
     inkscape:window-width="1920"
     inkscape:window-height="1009"
     inkscape:window-x="-8"
     inkscape:window-y="-8"
     inkscape:window-maximized="1"
     inkscape:current-layer="svg1" />
  <path
     style="fill:#11345b;stroke:#000000;stroke-width:0.998294;stroke-opacity:1"
     d="m -124.07635,-288.63162 v 135.53631 c 3.54213,-4.63515 3.18401,-12.32384 4.74537,-17.93863 2.96964,-10.67847 7.26374,-21.06105 12.36345,-30.89431 18.902926,-36.4488 51.775771,-65.3568 90.891323,-78.39841 10.6070201,-3.53636 21.7550301,-6.82699 33.00005,-7.30837 -4.21501,-1.76265 -9.4650099,-0.99659 -14.0000199,-0.99659 H -25.076217 -124.07635 m 1113.00159,0 c 5.99,2.57652 13.58996,2.72894 19.99996,4.22091 9.62,2.23758 19.11,5.70472 28,9.98897 36.7601,17.72457 65.5901,46.93383 81.7701,84.45258 5.2301,12.12552 6.4601,24.50616 10.2301,36.87385 1.77,-4.20063 1,-9.43273 1,-13.95227 v -26.90795 -94.67609 H 988.92524 M 155.92403,586.37479 v -72.7511 -19.93181 c 0,-3.01468 -0.601,-6.93726 1.028,-9.64101 2.20101,-3.65749 7.50901,-5.96958 10.97202,-8.29761 -11.81502,-16.78159 -26.22304,-30.80163 -36.57305,-48.83294 -23.50203,-40.94591 -32.919047,-90.96279 -26.00004,-137.52948 4.09601,-27.5617 13.46302,-54.67694 27.58504,-78.73064 12.86902,-21.922 29.55204,-41.13527 48.98807,-57.50726 56.99108,-48.00577 139.60219,-60.856792 209.00029,-34.7521 26.73203,10.05559 51.15907,26.1296 72.00009,45.5083 24.91204,23.16475 41.80206,53.13721 53.57608,84.62149 10.43301,27.89955 10.18101,56.52562 11.46301,85.70678 0.74601,16.95998 3.17601,33.86614 3.92201,50.82611 0.469,10.67249 -1.121,21.29017 -1.961,31.8909 h 57.00008 c 5.413,0 16.93102,2.16758 21.49003,-1.0245 3.432,-2.40278 3.911,-9.19155 4.887,-12.92777 3.17201,-12.13947 6.01201,-24.42444 7.75301,-36.87384 7.38301,-52.78242 2.14101,-107.20822 -15.82202,-157.46129 C 566.0776,99.126778 464.25546,19.599858 347.9243,8.5217569 308.27224,4.7456769 267.13118,8.4131269 228.92413,19.881888 142.06501,45.952698 69.939913,111.83131 34.350863,194.71475 15.028843,239.71579 7.7498331,287.65578 9.8848331,336.23059 c 3.3859999,77.0783 35.0190499,151.46182 90.0391199,206.29422 11.350017,11.31131 23.103037,21.7197 36.000047,31.26305 6.16401,4.56239 12.79402,9.86525 20.00003,12.58693 M 621.92467,198.70111 c 9.42202,-4.75373 16.89203,-16.63907 25.00004,-23.63015 16.56502,-14.28413 37.50505,-25.722 59.00008,-30.51959 21.45103,-4.78762 43.16406,-3.6525 65.00009,-3.6525 22.69903,0 45.36406,-0.99659 68.00009,-0.99659 23.87204,0 47.71007,1.89651 70.00017,-8.28067 26.46,-12.08466 43.32,-37.452872 62.17,-58.490892 l 23.0001,-25.91136 c 4.71,-5.25801 10.76996,-10.53396 13.82996,-16.94203 -32.59996,0 -65.32006,0.99659 -98.00006,0.99659 -41.31213,0 -82.77718,-0.84112 -124.00024,0.95772 -20.60703,0.89893 -41.42306,-1.27663 -62.00009,0.12756 -18.57602,1.26866 -36.20005,5.25602 -54.00007,10.45125 -27.86904,8.13218 -54.35007,22.65449 -77.00011,40.68481 -5.462,4.34812 -11.00801,8.6803 -15.99902,13.56858 -1.953,1.91146 -4.914,4.211592 -5.67001,6.961172 -0.821,2.98479 1.91701,5.78223 3.54301,7.97273 4.11,5.53507 7.96501,11.20965 11.79302,16.94204 14.44202,21.629 26.96403,45.10867 35.33304,69.76133 M 313.92425,505.65097 v -51.8227 c -26.23904,12.37067 -48.34107,33.22732 -74.0001,46.83975 v -46.83975 c -18.52303,8.62848 -35.88405,22.09441 -53.00008,33.23031 -5.133,3.33957 -15.94302,7.96574 -18.39702,13.79281 -1.935,4.59727 -0.603,11.84049 -0.603,16.75866 v 36.87385 28.90112 c 0,3.88671 -0.959,9.1487 2.318,11.99297 5.18401,4.49961 13.52902,7.1605 19.68203,10.17519 20.42803,10.00876 42.78206,17.11246 65.00009,21.89111 106.28914,22.85779 216.7983,-17.46525 289.0754,-96.87856 18.43702,-20.25769 33.90304,-43.3178 46.17206,-67.76815 4.36901,-8.70721 10.08401,-18.24259 11.75302,-27.90453 h -82.00012 l -1,109.62495 h -9.00001 c -0.588,-28.4128 0,-57.13553 0,-85.70678 v -22.92158 c 0,-4.99691 0.464,-10.22203 -1.483,-14.94786 -4.02501,-9.76659 -13.39802,-9.9669 -22.51703,-9.9669 v -39.86362 c 0,-7.93884 0.686,-15.57272 -5.21301,-21.82035 -8.69001,-9.20351 -25.35204,-6.08418 -36.78705,-6.08418 -4.93401,0 -10.09802,-0.42555 -15.00002,0.18437 -4.46101,0.5551 -8.70501,2.61804 -11.78602,5.89981 -7.07001,7.52924 -5.21401,19.34581 -5.21401,28.79648 -21.47603,0.50328 -16.00002,27.08434 -16.00002,41.8568 v 139.52266 h -13.00002 c 0,-19.56805 2.03101,-40.35294 -0.109,-59.79542 -0.405,-3.68241 -2.811,-6.431 -3.589,-9.96591 -1.067,-4.8504 -1.043,-10.95651 -1.263,-15.94545 -1.604,-36.51806 -1.155,-73.07001 -2.05401,-109.62494 -0.766,-31.16438 -2.985,-62.51612 -2.985,-93.67951 H 353.9243 c -2.469,10e-4 -6.311,-0.62187 -8.39701,1.0245 -3.436,2.71272 -1.597,12.98657 -1.603,16.91413 -0.025,15.24086 -1.926,30.60529 -1.999,45.84316 -0.177,36.57587 -2.56101,73.09891 -2.99701,109.62495 -0.127,10.64159 -0.952,21.30212 -1.003,31.8909 -0.021,4.29929 1.228,10.89074 -1.029,14.73957 -1.659,2.83031 -5.27901,4.35111 -7.97201,6.00047 -5.00601,3.06551 -9.80701,6.40309 -15.00002,9.15767 m 161.00022,-94.67609 c -19.81603,1.73705 -17.00002,21.1895 -17.00002,35.87725 V 559.46685 H 444.92443 V 420.94078 c 0,-13.71807 5.32701,-38.22223 -12.00002,-43.21415 -3.205,-0.92285 -6.70101,-0.63583 -10.00001,-0.63583 0,-6.03834 -1.735,-15.0824 3.228,-19.61489 2.97701,-2.7187 7.02801,-2.30811 10.77202,-2.3101 h 24.00003 c 4.21201,0.002 8.54501,-0.36276 11.56602,3.13727 3.561,4.12489 2.434,10.76218 2.434,15.79795 v 36.87385 m 148.00021,24.91476 c -2.85801,12.01888 -9.23302,23.8793 -14.75302,34.88066 -10.88202,21.6898 -23.19704,43.42145 -39.24706,61.78861 7.05201,9.97587 18.27603,17.77319 28.00004,25.04133 26.62104,19.89792 58.29808,35.61615 91.00013,42.51654 41.36205,8.72914 84.94211,5.19323 127.00017,5.19323 h 206.00026 c -3.21,-6.723 -9.91,-12.51717 -14.98,-17.93863 -7.65996,-8.19795 -15.29996,-16.51051 -22.72996,-24.91476 -8.9201,-10.0825 -18.0801,-19.92583 -27.1201,-29.89771 -11.23,-12.38563 -22.74,-24.77424 -38.17,-32.00052 -22.0001,-10.30474 -45.35513,-8.85969 -69.00015,-8.85969 h -85.00012 c -17.89402,0 -36.38005,1.24375 -54.00007,-2.50144 -22.66304,-4.81752 -44.13807,-15.3465 -62.00009,-30.00235 -8.54301,-7.01002 -15.44202,-17.85093 -25.00003,-23.30527 m -747.00103,389.6668 v 135.5363 H 10.923833 c -3.6629999,-2.8103 -8.5650099,-2.6609 -13.0000199,-3.6574 -6.80101,-1.5149 -13.5610201,-3.6775 -20.0000231,-6.3184 -22.225634,-9.1089 -42.324261,-22.513 -58.960684,-39.8537 -14.41432,-15.0286 -25.999336,-33.3858 -33.355036,-52.8193 -2.47768,-6.5476 -4.84612,-13.0553 -6.23535,-19.9318 -0.88345,-4.375 -0.70079,-9.358 -3.44907,-12.9557 m 1253.00175,0 c -4.46,14.909 -6.29,29.4991 -13.2601,43.85 -16.18,33.316 -43.77,61.8684 -77.7401,77.4251 -14.11,6.4679 -28.4,8.8398 -42.99996,13.2647 4.22,1.7639 9.45996,0.9965 13.99996,0.9965 h 27 94.0002 v -94.6761 -26.9079 c 0,-4.5245 0.77,-9.7466 -1,-13.9523 z"
     id="path1" />
</svg>
